<svg xmlns="http://www.w3.org/2000/svg" xml:lang="en" height="297.20000000000005pt" width="387.20000000000005pt" viewBox="-4.6 -274.6 387.20000000000005 297.20000000000005"><path id="resistor1" d="M 0.0,-0.0 L 36.0,-0.0 L 39.0,-9.0 L 45.0,9.0 L 50.99999999999999,-9.0 L 57.0,9.0 L 63.0,-9.0 L 69.0,9.0 L 72.0,-0.0 L 108.0,-0.0" style="stroke:black;fill:none;stroke-width:2.0;stroke-dasharray:-;stroke-linecap:round;stroke-linejoin:round;" /><path id="capacitor2" d="M 108.0,-0.0 L 158.76,-0.0 M 158.76,-9.0 L 158.76,9.0 M 165.24,-9.0 L 165.24,9.0 M 165.24,-0.0 L 216.0,-0.0" style="stroke:black;fill:none;stroke-width:2.0;stroke-dasharray:-;stroke-linecap:round;stroke-linejoin:round;" /><path id="myarduino1" d="M 216.0,-0.0 L 360.0,-0.0 L 360.0,-216.0 L 216.0,-216.0 L 216.0,-0.0" style="stroke:black;fill:none;stroke-width:2.0;stroke-dasharray:-;stroke-linecap:round;stroke-linejoin:round;" /><path id="myarduino1" d="M 360.0,-97.2 L 378.0,-97.2" style="stroke:black;fill:none;stroke-width:2.0;stroke-dasharray:-;stroke-linecap:round;stroke-linejoin:round;" /><path id="myarduino1" d="M 360.0,-118.80000000000001 L 378.0,-118.80000000000001" style="stroke:black;fill:none;stroke-width:2.0;stroke-dasharray:-;stroke-linecap:round;stroke-linejoin:round;" /><path id="myarduino1" d="M 270.0,-216.0 L 270.0,-234.0" style="stroke:black;fill:none;stroke-width:2.0;stroke-dasharray:-;stroke-linecap:round;stroke-linejoin:round;" /><path id="myarduino1" d="M 306.0,-216.0 L 306.0,-234.0" style="stroke:black;fill:none;stroke-width:2.0;stroke-dasharray:-;stroke-linecap:round;stroke-linejoin:round;" /><path id="myarduino1" d="M 288.0,-0.0 L 288.0,18.0" style="stroke:black;fill:none;stroke-width:2.0;stroke-dasharray:-;stroke-linecap:round;stroke-linejoin:round;" /><path id="wire1" d="M 270.0,-234.0 L 270.0,-270.0 L 378.0,-270.0 L 378.0,-97.2" style="stroke:black;fill:none;stroke-width:2.0;stroke-dasharray:-;stroke-linecap:round;stroke-linejoin:round;" /><path id="wire1" d="M 378.0,-97.2 L 378.0,-133.20000000000002 L 288.0,-133.20000000000002 L 288.0,18.0" style="stroke:black;fill:none;stroke-width:2.0;stroke-dasharray:-;stroke-linecap:round;stroke-linejoin:round;" /><text x="54.0" y="-26.6" dominant-baseline="ideographic" fill="black" font-size="14.0" font-family="sans" text-anchor="middle"><tspan x="54.0" dy="14.0">100KΩ</tspan></text><text x="214.20000000000002" y="-66.80000000000001" dominant-baseline="ideographic" fill="black" font-size="11.0" font-family="sans" text-anchor="end"><tspan x="214.20000000000002" dy="11.0">2</tspan></text><text x="221.4" y="-68.0" dominant-baseline="central" fill="black" font-size="14.0" font-family="sans" text-anchor="start"><tspan x="221.4" dy="14.0">TRG</tspan></text><text x="214.20000000000002" y="-120.8" dominant-baseline="ideographic" fill="black" font-size="11.0" font-family="sans" text-anchor="end"><tspan x="214.20000000000002" dy="11.0">6</tspan></text><text x="221.4" y="-122.0" dominant-baseline="central" fill="black" font-size="14.0" font-family="sans" text-anchor="start"><tspan x="221.4" dy="14.0">THR</tspan></text><text x="214.20000000000002" y="-174.79999999999998" dominant-baseline="ideographic" fill="black" font-size="11.0" font-family="sans" text-anchor="end"><tspan x="214.20000000000002" dy="11.0">7</tspan></text><text x="221.4" y="-176.0" dominant-baseline="central" fill="black" font-size="14.0" font-family="sans" text-anchor="start"><tspan x="221.4" dy="14.0">DIS</tspan></text><text x="362.7" y="-110.9" dominant-baseline="ideographic" fill="black" font-size="11" font-family="sans" text-anchor="start"><tspan x="362.7" dy="11">5</tspan></text><text x="354.59999999999997" y="-111.2" dominant-baseline="central" fill="black" font-size="14" font-family="sans" text-anchor="end"><tspan x="354.59999999999997" dy="14">CTL</tspan></text><text x="362.7" y="-132.5" dominant-baseline="ideographic" fill="black" font-size="11" font-family="sans" text-anchor="start"><tspan x="362.7" dy="11">3</tspan></text><text x="354.59999999999997" y="-132.8" dominant-baseline="central" fill="black" font-size="14" font-family="sans" text-anchor="end"><tspan x="354.59999999999997" dy="14">OUT</tspan></text><text x="271.8" y="-225.79999999999998" dominant-baseline="ideographic" fill="black" font-size="8" font-family="sans" text-anchor="start"><tspan x="271.8" dy="8">4</tspan></text><text x="270.0" y="-224.6" dominant-baseline="hanging" fill="black" font-size="14.0" font-family="sans" text-anchor="middle"><tspan x="270.0" dy="14.0">RST</tspan></text><text x="307.8" y="-225.79999999999998" dominant-baseline="ideographic" fill="black" font-size="8" font-family="sans" text-anchor="start"><tspan x="307.8" dy="8">8</tspan></text><text x="306.0" y="-224.6" dominant-baseline="hanging" fill="black" font-size="14.0" font-family="sans" text-anchor="middle"><tspan x="306.0" dy="14.0">Vcc</tspan></text><text x="290.7" y="-8.3" dominant-baseline="hanging" fill="black" font-size="11" font-family="sans" text-anchor="start"><tspan x="290.7" dy="11">1</tspan></text><text x="288.0" y="-19.4" dominant-baseline="ideographic" fill="black" font-size="14" font-family="sans" text-anchor="middle"><tspan x="288.0" dy="14">GND</tspan></text><text x="291.59999999999997" y="-125.60000000000001" dominant-baseline="central" fill="black" font-size="14.0" font-family="sans" text-anchor="middle"><tspan x="291.59999999999997" dy="14.0">Sensor2</tspan></text></svg>